<?xml version="1.0" encoding="utf-8"?>
<!-- Generator: Adobe Illustrator 21.0.2, SVG Export Plug-In . SVG Version: 6.00 Build 0)  -->
<svg version="1.1" id="Layer_1" xmlns="http://www.w3.org/2000/svg" xmlns:xlink="http://www.w3.org/1999/xlink" x="0px" y="0px"
	 viewBox="0 0 16 16" style="enable-background:new 0 0 16 16;" xml:space="preserve">
<style type="text/css">
	.st0{fill:#788185;}
</style>
<g id="Layer_3">
	<path class="st0" d="M10.1,12.9c-0.2,0.1-1.5,0.6-3.6,0.9c-1.1,0.1-2.5-0.1-2.9-0.4s-0.4-1.2-0.4-1.2L5.4,1.1c0,0,0-0.5-0.4-0.6
		S3.5,0.9,3.2,0.9S3.5,1,3.5,1.4c0,0.4-2.2,11.5-2.2,11.5c-0.1,0.8,0.2,1.7,1.1,2c0.9,0.3,1.9,0.2,3.4,0.2s3.3-0.5,3.7-0.9
		S10.3,12.8,10.1,12.9z"/>
</g>
</svg>
