<?xml version="1.0" encoding="utf-8"?>
<!-- Generator: Adobe Illustrator 21.0.2, SVG Export Plug-In . SVG Version: 6.00 Build 0)  -->
<svg version="1.1" id="Object_Label" xmlns="http://www.w3.org/2000/svg" xmlns:xlink="http://www.w3.org/1999/xlink" x="0px"
	 y="0px" viewBox="0 0 16 16" style="enable-background:new 0 0 16 16;" xml:space="preserve">
<style type="text/css">
	.st0{fill:#788185;}
</style>
<path class="st0" d="M12.5,15.2l1.5-0.8l-3-2.9l0.5-0.5l3,2.9l0.8-1.5l0.6,3.4L12.5,15.2z M15.8,0.2l-3.4,0.6l1.5,0.8l-2.7,2.9
	L11.7,5l2.9-3l0.8,1.5L15.8,0.2z M0.7,12.5L1.5,14l2.9-3l0.5,0.5l-2.9,3l1.5,0.8l-3.4,0.6L0.7,12.5z M12.9,12.8
	c-0.1,0.1-1.6,0.6-3.5,0.9c-1.1,0.1-2.6-0.1-3-0.4C6,12.9,6,11.9,6,11.9L8.2,1.3c0,0,0-0.4-0.4-0.6C7.2,0.6,6.3,1,6,1.1
	c-0.3,0,0.3,0.2,0.3,0.5c0,0.4-2.1,11.2-2.1,11.2c-0.1,0.9,0.1,1.7,1.1,2s2,0.1,3.4,0.1s3.3-0.6,3.7-1
	C12.8,13.6,13.1,12.6,12.9,12.8z M0.2,0.2l3.4,0.6L2.1,1.6L5,4.5L4.4,4.9l-2.9-3L0.8,3.4L0.2,0.2z"/>
</svg>
