<?xml version="1.0" encoding="utf-8"?>
<!-- Generator: Adobe Illustrator 21.0.2, SVG Export Plug-In . SVG Version: 6.00 Build 0)  -->
<svg version="1.1" id="Histogram" xmlns="http://www.w3.org/2000/svg" xmlns:xlink="http://www.w3.org/1999/xlink" x="0px" y="0px"
	 viewBox="0 0 16 16" style="enable-background:new 0 0 16 16;" xml:space="preserve">
<style type="text/css">
	.st0{fill:#788185;}
</style>
<path class="st0" d="M2,14.4l0-3.2h1.3l0,3.2L2,14.4z M5.2,14.4V7.6l-1.2,0v6.9H5.2z M7.1,14.4V3.8H5.8l0,10.7L7.1,14.4z M8.9,14.4
	v-5H7.7v5H8.9z M10.8,14.4l0-12.5H9.6v12.5H10.8z M12.7,14.5V6.3l-1.2,0l0,8.2H12.7z M14.6,14.4v-3.7l-1.2,0v3.8H14.6z M1.2,0.8H0.5
	l0,14.4l15.1,0l0-0.7l-14.3,0V0.8z"/>
</svg>
