<?xml version="1.0" encoding="utf-8"?>
<!-- Generator: Adobe Illustrator 21.0.2, SVG Export Plug-In . SVG Version: 6.00 Build 0)  -->
<svg version="1.1" id="Layer_1" xmlns="http://www.w3.org/2000/svg" xmlns:xlink="http://www.w3.org/1999/xlink" x="0px" y="0px"
	 viewBox="0 0 16 16" style="enable-background:new 0 0 16 16;" xml:space="preserve">
<style type="text/css">
	.st0{fill:#788185;}
</style>
<path class="st0" d="M2.9,13.6v0.5H1.6V1.7h13V3h-0.5V2.3h-12v11.4L2.9,13.6z M3.2,14.6h12V3.2h-12L3.2,14.6z M2.7,2.7h13v12.4h-13
	C2.7,15.1,2.7,2.7,2.7,2.7z M1,12.5V1.1h12v0.6h0.5V0.6h-13V13h1.1v-0.5H1z M12.5,8.1c1.7,0.9,1.7,1,0,1.8c0,0-6.8,3.2-7.5,3.5
	c-1,0.5-0.7-0.8,0-1.1c0.5-0.2,5.3-2.4,5.3-2.4c2.4-1.1,2.4-0.6,0-1.8c0,0-4.9-2.3-5.3-2.5C4.7,5.4,4,4.1,5,4.5
	C6,4.9,12.5,8.1,12.5,8.1z"/>
</svg>
