<?xml version="1.0" encoding="utf-8"?>
<!-- Generator: Adobe Illustrator 21.0.2, SVG Export Plug-In . SVG Version: 6.00 Build 0)  -->
<svg version="1.1" id="Layer_1" xmlns="http://www.w3.org/2000/svg" xmlns:xlink="http://www.w3.org/1999/xlink" x="0px" y="0px"
	 viewBox="0 0 16 16" style="enable-background:new 0 0 16 16;" xml:space="preserve">
<style type="text/css">
	.st0{fill:#788185;}
</style>
<path class="st0" d="M10,10.4c-1.4,1.4-3.6,1.4-5,0s-1.4-3.6,0-5s3.6-1.4,5,0S11.4,9,10,10.4z M9.4,6C8.4,4.9,6.7,4.9,5.6,6
	s-1.1,2.8,0,3.8s2.8,1.1,3.8,0S10.5,7,9.4,6z M1.3,14.2L1.3,14.2c-0.4-0.4-0.4-0.9,0-1.3l3.3-3.3l1.3,1.3l-3.3,3.3
	C2.2,14.5,1.6,14.5,1.3,14.2z M2.4,13.6l2.2-2.2c0.2-0.2,0.2-0.4,0-0.6h0c-0.2-0.2-0.4-0.2-0.6,0L1.9,13c-0.2,0.2-0.2,0.4,0,0.6l0,0
	C2,13.7,2.3,13.7,2.4,13.6z M14.7,0.3c0,0-0.4,0.6-0.8,0.9s-0.9,0.6-1.5,0.7C12.1,2,4.7,2,4.7,2S3.9,1.9,3.3,2.2S2.6,3.7,2.6,3.7
	c0.9-0.3,2.6-0.4,1.9-0.4c0,0,2.2,0,2.9,0L5.1,15.1c0,0,0.4,0.2,1,0.1c0.6-0.1,1.1-0.5,1.1-0.5s-0.1-0.4-0.1-0.7
	c0-0.8,2.2-10.8,2.2-10.8h2.4c0,0,0.6,0,1.2-0.1c0.9-0.2,1.7-0.8,2-1.4C15.2,1,14.7,0.3,14.7,0.3z"/>
</svg>
