<?xml version="1.0" encoding="utf-8"?>
<!-- Generator: Adobe Illustrator 21.0.2, SVG Export Plug-In . SVG Version: 6.00 Build 0)  -->
<svg version="1.1" id="Layer_1" xmlns="http://www.w3.org/2000/svg" xmlns:xlink="http://www.w3.org/1999/xlink" x="0px" y="0px"
	 viewBox="0 0 16 16" style="enable-background:new 0 0 16 16;" xml:space="preserve">
<style type="text/css">
	.st0{fill:#788185;}
</style>
<path class="st0" d="M9.5,14.2c-0.4,0.4-2.2,0.9-3.7,0.9s-2.5,0.1-3.4-0.2c-0.9-0.3-1.2-1.2-1.1-2c0,0,2.2-11.1,2.2-11.5
	C3.5,1,3,1,3.2,0.9S4.5,0.4,5,0.5s0.4,0.6,0.4,0.6L3.3,12.2c0,0-0.1,1,0.4,1.2s1.8,0.5,2.9,0.4c2-0.3,3.4-0.8,3.6-0.9
	C10.3,12.8,9.9,13.7,9.5,14.2z M4.4,5.5C3,6.8,3,9,4.4,10.4s3.6,1.4,5,0s1.4-3.6,0-5S5.8,4.1,4.4,5.5z M8.8,6c1.1,1.1,1.1,2.8,0,3.8
	S6,10.9,5,9.8S3.9,7.1,5,6S7.7,5,8.8,6z M13.2,12.9L9.9,9.6l-1.3,1.3l3.3,3.3c0.4,0.4,0.9,0.4,1.3,0l0,0
	C13.5,13.8,13.5,13.3,13.2,12.9z M12.6,13.6L12.6,13.6c-0.2,0.2-0.4,0.2-0.6,0l-2.2-2.2c-0.2-0.2-0.2-0.4,0-0.6v0
	c0.2-0.2,0.4-0.2,0.6,0l2.2,2.2C12.7,13.2,12.7,13.4,12.6,13.6z"/>
<g id="Layer_3">
</g>
</svg>
