<?xml version="1.0" encoding="utf-8"?>
<!-- Generator: Adobe Illustrator 21.0.2, SVG Export Plug-In . SVG Version: 6.00 Build 0)  -->
<svg version="1.1" id="Histogram" xmlns="http://www.w3.org/2000/svg" xmlns:xlink="http://www.w3.org/1999/xlink" x="0px" y="0px"
	 viewBox="0 0 16 16" style="enable-background:new 0 0 16 16;" xml:space="preserve">
<style type="text/css">
	.st0{fill:#788185;}
</style>
<path class="st0" d="M1.2,12.5c0,0,0.2-1.3,0.4-1.9c0.2-0.6,1.8-3.7,1.8-3.7s1.5-3,1.8-3.4S6,2.8,6.3,2.7c0.3-0.1,0.8,0.1,1.1,0.4
	s0.5,2.5,0.5,2.5s0.2,2.6,0.5,2.7c0.3,0,0.3-2.1,0.3-2.1s0-4,0.3-4.5s0.9-0.7,1.3-0.7s0.6,0,0.9,0.5c0.3,0.5,0.7,3,0.8,3.3
	C12.2,5,12.7,5.2,13,5.5c0.3,0.3,0.6,3.2,0.8,3.7s0.8,0.5,1.2,0.9s1,2.5,0.8,1.8c-0.2-0.8,0.1,0.8,0.1,0.8s-0.8-1.8-1.3-2.2
	c-0.5-0.3-0.8-0.3-1.2-0.9S12.9,6.2,12.6,6c-0.2-0.2-0.8-0.6-1.1-1s-0.5-2.7-0.7-3.2s-0.6-0.3-0.6-0.3S9.5,1.6,9.4,2
	C9.3,2.3,9.3,5.4,9.2,6S9.1,7.8,9.1,7.8S9,8.9,8.4,8.9c-0.5,0-0.8-1-0.9-2.4S7.1,3.6,7.1,3.6S7,3.3,6.5,3.3S5.6,3.9,5.6,3.9
	S4.4,6.3,3.9,7.2S3,8.8,3,8.8s-1,1.9-1.2,2.3C1.6,11.6,1.2,12.5,1.2,12.5z M3.3,14.4l0-3.2H2l0,3.2L3.3,14.4z M3.9,14.4V7.5l1.2,0
	v6.9H3.9z M5.8,14.4l0-10.7h1.2v10.6L5.8,14.4z M7.7,14.4v-5h1.2v5H7.7z M9.6,14.4V1.9h1.2l0,12.5H9.6z M11.4,14.5l0-8.2l1.2,0v8.2
	H11.4z M13.3,14.4v-3.8l1.2,0v3.7H13.3z M1.2,14.4l14.3,0l0,0.7l-15.1,0l0-14.4h0.7V14.4z"/>
<g id="Layer_2">
</g>
</svg>
