<?xml version="1.0" encoding="utf-8"?>
<!-- Generator: Adobe Illustrator 21.0.2, SVG Export Plug-In . SVG Version: 6.00 Build 0)  -->
<svg version="1.1" id="Layer_1" xmlns="http://www.w3.org/2000/svg" xmlns:xlink="http://www.w3.org/1999/xlink" x="0px" y="0px"
	 viewBox="0 0 16 16" style="enable-background:new 0 0 16 16;" xml:space="preserve">
<style type="text/css">
	.st0{fill:#788185;}
</style>
<path class="st0" d="M13.7,0H0v16h16V2.8L13.7,0z M3.5,1.1l8.2,0l0,3.9L3.5,5V1.1z M15.1,14.9L0.9,14.9l0-13.8l1.5,0l0,4.8l10.2,0
	l0-4.9l0.7,0l1.6,2.1L15.1,14.9z M4.3,2.7l6.5,0V1.9l-6.5,0V2.7z M4.3,4.2l6.5,0V3.4l-6.5,0V4.2z M10.2,15v-2.8H5.3V15H10.2z"/>
</svg>
