<?xml version="1.0" encoding="utf-8"?>
<!-- Generator: Adobe Illustrator 21.0.2, SVG Export Plug-In . SVG Version: 6.00 Build 0)  -->
<svg version="1.1" id="Layer_1" xmlns="http://www.w3.org/2000/svg" xmlns:xlink="http://www.w3.org/1999/xlink" x="0px" y="0px"
	 viewBox="0 0 16 16" style="enable-background:new 0 0 16 16;" xml:space="preserve">
<style type="text/css">
	.st0{fill:#788185;}
</style>
<path class="st0" d="M13.7,0H0v16h16V2.8L13.7,0z M3.5,1.1h8.2V5H3.5V1.1z M15.1,14.9H0.9V1.1h1.5v4.8h10.2V1h0.7l1.6,2.1L15.1,14.9
	z M4.3,2.7h6.5V1.9H4.3V2.7z M4.3,4.2h6.5V3.4H4.3V4.2z M10.2,15v-2.8H5.3V15H10.2z M4.3,8c0-0.1-0.2-0.2-0.3-0.3
	c-0.1-0.1-0.4-0.1-0.6,0C3.3,7.8,3.1,7.9,3,8.1C2.8,8.4,2.8,8.4,2.7,8.6C2.6,8.9,2.6,9.3,2.7,9.8c0.1,0.5,0.2,0.6,0.5,0.8
	s0.7,0.2,1,0s0.2-0.2,0.2-0.2s0.2-0.2,0.3-0.3c0-0.1,0-0.2,0.1-0.4c0.2,0,0.6,0.3,0.6,0.5c0,0.1-0.1,0.5-0.3,0.7
	c-0.2,0.2-0.4,0.4-0.7,0.5c-0.3,0.2-1.3,0.1-1.6,0c-0.2-0.1-0.5-0.3-0.7-0.6c-0.3-0.5-0.4-1.7-0.3-2.1s0.3-0.9,0.6-1.3
	s0.7-0.6,1.1-0.6s1,0.2,1.3,0.7C5,7.7,5,8.3,5.1,8.4C5.3,8.5,5.2,9,5,9.1C4.8,9.2,4.6,9.1,4.4,9c0,0.1,0-0.4,0-0.6
	C4.4,8.3,4.4,8.2,4.3,8z M10.9,7.6c0,0.4,0.1,0.9,0.2,1.2c0.1,0.5,0.3,0.9,0.5,1.1c0.2,0.2,0.1,0.2,0.3,0.3c0.2,0.1,0.4-0.4,0.5-0.7
	s0.1-0.6,0.2-0.9c0-0.3,0.1-1,0.1-1.5c0,0,0.4-0.1,0.6-0.1c0.3,0,0.2,0.1,0.2,0.2s0,0.4,0,0.7c0,0.3,0,0.9-0.1,1.3
	c-0.1,0.4-0.4,1.3-0.6,1.7c-0.2,0.5-0.5,0.6-0.7,0.6s-0.5-0.3-0.8-0.7c-0.3-0.3-0.8-1.4-0.9-1.9c-0.1-0.5,0,0,0,0S10,7.4,10,7.2
	s0.1-0.3,0.3-0.4c0.2,0,0.8,0.4,0.8,0.4S10.9,7.4,10.9,7.6z M8.4,7.8c0-0.2,0-0.2-0.1-0.4C8.2,7.3,8.1,7.3,7.9,7.2
	C7.7,7.1,7.5,7.1,7.4,7.3C7.2,7.4,7.2,7.4,7.2,7.5c-0.1,0.2-0.1,0.4,0,0.7c0.1,0.1,0.1,0.2,0.5,0.5C7.9,8.9,8.1,8.9,8.2,9
	c0.2,0.1,0.6,0.2,0.9,0.4c0.2,0.1,0.4,0.4,0.4,0.8c0,0.3,0,0.6-0.1,0.9c-0.1,0.2-0.4,0.4-0.8,0.5c-0.4,0.1-0.8,0.1-1.1,0
	s-0.6-0.2-0.8-0.3C6.3,11.1,6,10.8,6,10.6c0-0.1,0-0.2,0.1-0.4c0-0.2,0.2-0.6,0.4-0.5c0,0.1,0.1,0.3,0.2,0.4s0.4,0.3,0.6,0.3
	c0.2,0.1,0.6,0.2,0.7,0.3c0.1,0,0.3,0.1,0.5,0c0.1-0.1,0.2-0.2,0.2-0.3c0-0.2,0-0.3-0.2-0.4C8.4,10,8,9.9,7.6,9.7
	C7.3,9.5,6.8,9.2,6.6,9S6.2,8.4,6.2,8.2c0-0.4,0.1-0.8,0.3-1.1c0.1-0.1,0.2-0.3,0.4-0.4S7.6,6.4,8,6.5c0.2,0,0.5,0.2,0.6,0.3
	c0.1,0.1,0.2,0.2,0.3,0.4S9,7.7,9,7.8C9,8,9.1,8.2,9,8.4c0,0,0,0.1-0.1,0.1S8.3,8.4,8.2,8.4C8.3,8.2,8.4,8.1,8.4,7.8z"/>
</svg>
