<?xml version="1.0" encoding="utf-8"?>
<!-- Generator: Adobe Illustrator 21.0.2, SVG Export Plug-In . SVG Version: 6.00 Build 0)  -->
<svg version="1.1" id="Layer_1" xmlns="http://www.w3.org/2000/svg" xmlns:xlink="http://www.w3.org/1999/xlink" x="0px" y="0px"
	 viewBox="0 0 16 16" style="enable-background:new 0 0 16 16;" xml:space="preserve">
<style type="text/css">
	.st0{fill:#788185;}
</style>
<path class="st0" d="M13.7,0H0v16h16V2.8L13.7,0z M3.5,1.1h8.2V5H3.5V1.1z M15.1,14.9H0.9V1.1h1.5v4.8h10.2V1h0.7l1.6,2.1L15.1,14.9
	z M4.3,2.7h6.5V1.9H4.3V2.7z M4.3,4.2h6.5V3.4H4.3V4.2z M10.2,15v-2.8H5.3V15H10.2z M1.1,11.6C1.6,11.1,2.5,9.9,3,9.3
	c0.5-0.6,0.8-1.1,1.1-1.1s1,1,1,1l0.9,1c0,0,0.5,0.5,0.7,0.5s1-1,1-1L9,8c0,0,1-1.4,1.2-1.4s1.3,1.2,1.3,1.2s3.1,3.4,3.2,3.7
	c0,0.4,0.1,3.1,0,3.1l-4.3,0L10.4,12H5l0,2.7l-4,0C1.2,14.7,1.1,12.1,1.1,11.6z M6.8,6.5C6,6.5,5.5,7.2,5.5,7.8C5.5,8.4,6.2,9,6.8,9
	S8,8.4,8,7.8S7.5,6.5,6.8,6.5z"/>
</svg>
