<?xml version="1.0" encoding="utf-8"?>
<!-- Generator: Adobe Illustrator 21.0.2, SVG Export Plug-In . SVG Version: 6.00 Build 0)  -->
<svg version="1.1" id="Object_Label" xmlns="http://www.w3.org/2000/svg" xmlns:xlink="http://www.w3.org/1999/xlink" x="0px"
	 y="0px" viewBox="0 0 16 16" style="enable-background:new 0 0 16 16;" xml:space="preserve">
<style type="text/css">
	.st0{fill:#788185;}
</style>
<polygon class="st0" points="1.9,0.4 1.9,1.6 0.6,1.6 0.6,2.2 1.9,2.2 1.9,4.1 0.6,4.1 0.6,4.8 1.9,4.8 1.9,6.7 0.6,6.7 0.6,7.2 
	1.9,7.2 1.9,9.1 0.6,9.1 0.6,9.8 1.9,9.8 1.9,11.6 0.6,11.6 0.6,12.2 1.9,12.2 1.9,14.1 3.7,14.1 3.7,15.4 4.4,15.4 4.4,14.1 
	6.2,14.1 6.2,15.4 6.9,15.4 6.9,14.1 8.7,14.1 8.7,15.4 9.4,15.4 9.4,14.2 11.2,14.2 11.2,15.4 11.9,15.4 11.9,14.1 13.7,14.1 
	13.7,15.4 14.4,15.4 14.4,14.2 15.6,14.2 15.6,13.5 2.5,13.5 2.5,0.4 "/>
</svg>
