<?xml version="1.0" encoding="utf-8"?>
<!-- Generator: Adobe Illustrator 21.0.2, SVG Export Plug-In . SVG Version: 6.00 Build 0)  -->
<svg version="1.1" id="Layer_1" xmlns="http://www.w3.org/2000/svg" xmlns:xlink="http://www.w3.org/1999/xlink" x="0px" y="0px"
	 viewBox="0 0 16 16" style="enable-background:new 0 0 16 16;" xml:space="preserve">
<style type="text/css">
	.st0{fill:#788185;}
</style>
<path class="st0" d="M0.8,8c0-4.1,3.3-7.3,7.4-7.3s7.3,3.3,7.3,7.3s-3.3,7.4-7.3,7.4S0.8,12.1,0.8,8z M8.1,2.1
	C4.8,2.1,2.2,4.7,2.2,8s2.6,5.8,5.9,5.8S14,11.2,14,7.9S11.4,2.1,8.1,2.1z M9.1,10.4V5.5c0-0.5-0.4-1-1-1l0,0c-0.5,0-1,0.4-1,1v4.9
	c0,0.5,0.4,1,1,1l0,0C8.7,11.5,9.1,11,9.1,10.4z"/>
</svg>
