<?xml version="1.0" encoding="utf-8"?>
<!-- Generator: Adobe Illustrator 21.0.2, SVG Export Plug-In . SVG Version: 6.00 Build 0)  -->
<svg version="1.1" id="Layer_1" xmlns="http://www.w3.org/2000/svg" xmlns:xlink="http://www.w3.org/1999/xlink" x="0px" y="0px"
	 viewBox="0 0 16 16" style="enable-background:new 0 0 16 16;" xml:space="preserve">
<style type="text/css">
	.st0{font-family:'LucidaHandwriting-Italic';}
	.st1{font-size:18px;}
</style>
<text transform="matrix(1 0 0 1 0.3126 15.0107)" class="st0 st1">T</text>
<path d="M10.6,10.8c-1.6,1.6-4.2,1.6-5.7,0s-1.6-4.2,0-5.7s4.2-1.6,5.7,0S12.2,9.2,10.6,10.8z M9.9,5.7c-1.2-1.2-3.2-1.2-4.4,0
	s-1.2,3.2,0,4.4s3.2,1.2,4.4,0S11.1,7,9.9,5.7z"/>
<path d="M0.5,15.3L0.5,15.3C0,14.8,0,14.2,0.4,13.8l3.8-3.8l1.5,1.5l-3.8,3.8C1.5,15.6,0.9,15.6,0.5,15.3z M1.8,14.5L4.3,12
	c0.2-0.2,0.2-0.5,0-0.6h0c-0.2-0.2-0.5-0.2-0.6,0l-2.5,2.5c-0.2,0.2-0.2,0.5,0,0.6l0,0C1.3,14.7,1.6,14.7,1.8,14.5z"/>
</svg>
