<?xml version="1.0" encoding="utf-8"?>
<!-- Generator: Adobe Illustrator 21.0.2, SVG Export Plug-In . SVG Version: 6.00 Build 0)  -->
<svg version="1.1" id="Layer_1" xmlns="http://www.w3.org/2000/svg" xmlns:xlink="http://www.w3.org/1999/xlink" x="0px" y="0px"
	 viewBox="0 0 16 16" style="enable-background:new 0 0 16 16;" xml:space="preserve">
<style type="text/css">
	.st0{fill:#788185;}
</style>
<path class="st0" d="M2.9,13.6l0,0.5H1.6V1.7l13,0v1.3h-0.5l0-0.7l-12,0l0,11.4L2.9,13.6z M3.2,14.6h12V3.2l-12,0L3.2,14.6z
	 M2.7,2.7l13,0v12.4l-13,0V2.7z M1,12.5V1.1l12,0l0,0.6h0.5l0-1.1h-13V13l1.1,0v-0.5L1,12.5z M5.6,9.8c-1.7-0.9-1.7-1,0-1.8
	c0,0,6.8-3.2,7.5-3.5c1-0.5,0.7,0.8,0,1.1C12.6,5.8,7.8,8,7.8,8c-2.4,1.1-2.4,0.6,0,1.8c5.2,2.4,5.2,2.4,5.3,2.5
	c0.3,0.2,1,1.5,0,1.1C12.1,13,5.6,9.8,5.6,9.8z"/>
</svg>
