<?xml version="1.0" encoding="utf-8"?>
<!-- Generator: Adobe Illustrator 21.0.2, SVG Export Plug-In . SVG Version: 6.00 Build 0)  -->
<svg version="1.1" id="Layer_2" xmlns="http://www.w3.org/2000/svg" xmlns:xlink="http://www.w3.org/1999/xlink" x="0px" y="0px"
	 viewBox="0 0 16 16" style="enable-background:new 0 0 16 16;" xml:space="preserve">
<style type="text/css">
	.st0{fill:#788185;}
</style>
<path class="st0" d="M14.3,11.2l-1.7,0.9l3.3,3.2l-0.6,0.6L12,12.7l-0.9,1.7l-0.6-3.8L14.3,11.2z M10.6,5.5L14.3,5l-1.7-0.9l3.2-3.3
	l-0.6-0.6L12,3.5l-0.9-1.7L10.6,5.5z M4.9,14.2L4,12.6l-3.2,3.3l-0.6-0.6L3.4,12l-1.7-0.9l3.8-0.6L4.9,14.2z M11.2,11.2
	c-0.1,0.1-1.1,0.4-2.5,0.6c-0.8,0.1-1.8-0.1-2.1-0.3s-0.3-0.9-0.3-0.9l1.5-7.8c0,0,0-0.3-0.3-0.4S6.5,2.7,6.3,2.7
	c-0.2,0,0.2,0.1,0.2,0.3c0,0.3-1.5,8.1-1.5,8.1c-0.1,0.6,0.1,1.2,0.8,1.4c0.7,0.2,1.4,0.1,2.4,0.1s2.3-0.4,2.6-0.7
	C11.1,11.8,11.4,11.1,11.2,11.2z M5.5,5.5L1.7,4.9l1.7-0.9L0.2,0.7l0.6-0.6L4,3.5L5,1.8L5.5,5.5z"/>
</svg>
